G04 Layer_Physical_Order=4*
G04 Layer_Color=16711680*
%FSTAX42Y42*%
%MOMM*%
G71*
G01*
G75*
%ADD10C,0.30*%
%ADD11C,0.40*%
%ADD12C,0.25*%
%ADD14C,0.45*%
%ADD17R,2.60X0.30*%
%ADD50C,0.50*%
%ADD51C,1.20*%
%ADD52C,0.60*%
%ADD53C,0.87*%
%ADD54C,0.60*%
%ADD55C,0.60*%
D10*
X021522Y018513D02*
X021733D01*
X018075Y017575D02*
X018077Y017572D01*
X021645Y018613D02*
X021776D01*
X021562Y018696D02*
X021645Y018613D01*
X021551Y018326D02*
X021638Y018413D01*
X021638D02*
X02183D01*
X021526Y018696D02*
X021562D01*
X021525Y018326D02*
X021551D01*
X02159Y018463D02*
X021777D01*
X021552Y018423D02*
X02159Y018463D01*
X021552Y018606D02*
X021594Y018563D01*
X021784D01*
D11*
X020059Y017042D02*
G03*
X019985Y016862I00018J-00018D01*
G01*
X020702Y016409D02*
X020709D01*
X020489Y016962D02*
X020495Y016956D01*
X02024Y017019D02*
Y01716D01*
X020161Y016835D02*
X020165Y01684D01*
X019985Y016756D02*
Y016862D01*
D12*
X034282Y02054D02*
X034257Y020566D01*
X034206D01*
X03418Y02054D01*
Y020515D01*
X034206Y02049D01*
X034257D01*
X034282Y020464D01*
Y020439D01*
X034257Y020413D01*
X034206D01*
X03418Y020439D01*
X034358Y020413D02*
X034409D01*
X034434Y020439D01*
Y02049D01*
X034409Y020515D01*
X034358D01*
X034333Y02049D01*
Y020439D01*
X034358Y020413D01*
X034485D02*
X034536D01*
X03451D01*
Y020566D01*
X034485D01*
X034714D02*
Y020413D01*
X034637D01*
X034612Y020439D01*
Y02049D01*
X034637Y020515D01*
X034714D01*
X034841Y020413D02*
X03479D01*
X034764Y020439D01*
Y02049D01*
X03479Y020515D01*
X034841D01*
X034866Y02049D01*
Y020464D01*
X034764D01*
X034917Y020515D02*
Y020413D01*
Y020464D01*
X034942Y02049D01*
X034968Y020515D01*
X034993D01*
X035221Y020413D02*
X035298D01*
X035323Y020439D01*
X035298Y020464D01*
X035247D01*
X035221Y02049D01*
X035247Y020515D01*
X035323D01*
X035374Y020413D02*
X035425D01*
X035399D01*
Y020515D01*
X035374D01*
X035602Y020566D02*
Y020413D01*
X035526D01*
X035501Y020439D01*
Y02049D01*
X035526Y020515D01*
X035602D01*
X035729Y020413D02*
X035678D01*
X035653Y020439D01*
Y02049D01*
X035678Y020515D01*
X035729D01*
X035755Y02049D01*
Y020464D01*
X035653D01*
D14*
X02224Y020043D02*
G03*
X022428Y019495I125199J042752D01*
G01*
X021775Y016996D02*
G03*
X021542Y016601I000164J-000363D01*
G01*
X0212Y016352D02*
G03*
X021541Y016601I000023J000326D01*
G01*
X018619Y016882D02*
G03*
X018421Y017205I-000233J000079D01*
G01*
X018078Y017572D02*
G03*
X018421Y017205I000355J-000012D01*
G01*
X022241Y020047D02*
G03*
X021888Y020186I-000193J000026D01*
G01*
X022167Y017126D02*
G03*
X022314Y017606I-000336J000365D01*
G01*
X022494Y017938D02*
G03*
X022314Y017606I000086J-000262D01*
G01*
X022477Y019167D02*
G03*
X022488Y018788I000206J-000184D01*
G01*
X022601Y018299D02*
G03*
X022488Y018788I-000278J000193D01*
G01*
X020845Y020786D02*
G03*
X021178Y020606I000323J000198D01*
G01*
X021658Y02046D02*
G03*
X021178Y020606I-000347J-000278D01*
G01*
X020508Y020909D02*
G03*
X020019Y020795I-000157J-000435D01*
G01*
X019641Y020785D02*
G03*
X020019Y020795I000184J000195D01*
G01*
X019286Y020721D02*
G03*
X018785Y020202I-00006J-000443D01*
G01*
X018715Y020068D02*
G03*
X018785Y020202I-0001J000138D01*
G01*
X017993Y019107D02*
G03*
X018173Y01944I-000221J000335D01*
G01*
X018319Y01992D02*
G03*
X018173Y01944I00017J-000314D01*
G01*
X017872Y018804D02*
G03*
X017995Y017938I001885J-000173D01*
G01*
X019696Y016344D02*
G03*
X019337Y016464I-000305J-000315D01*
G01*
X018857Y01661D02*
G03*
X019337Y016464I00034J000253D01*
G01*
X020176Y016418D02*
G03*
X020355Y016492I0J000254D01*
G01*
X02015Y016418D02*
G03*
X019982Y016168I000059J-000221D01*
G01*
X020379Y016516D02*
G03*
X020451Y016689I-000173J000173D01*
G01*
X020468Y016821D02*
G03*
X020451Y016804I0J-000018D01*
G01*
X021199Y016354D02*
X0212Y016355D01*
X02015Y016418D02*
X02015D01*
X020176D01*
X020355Y016492D02*
X020379Y016516D01*
X020451Y016689D02*
Y016804D01*
D17*
X021777Y018463D02*
D03*
Y018513D02*
D03*
Y018613D02*
D03*
Y018563D02*
D03*
Y018413D02*
D03*
D50*
X020576Y016791D02*
G03*
X02051Y016953I-000234J0D01*
G01*
X020579Y016488D02*
G03*
X020585Y016472I000023J0D01*
G01*
X020605Y016452D02*
G03*
X020709Y016409I000104J000104D01*
G01*
X020585Y016472D02*
X020605Y016452D01*
X020576Y016483D02*
Y016789D01*
D51*
X018427Y017011D02*
D03*
X022058Y020065D02*
D03*
X01864Y020285D02*
D03*
X021847Y016787D02*
D03*
D52*
X021665Y016769D02*
D03*
X021781Y016998D02*
D03*
X018619Y016882D02*
D03*
X017851Y01795D02*
D03*
X018875Y02025D02*
D03*
X018715Y020068D02*
D03*
X02193Y020312D02*
D03*
X021201Y016354D02*
D03*
X020824Y01614D02*
D03*
X019983Y016167D02*
D03*
X022166Y017126D02*
D03*
X022494Y017938D02*
D03*
X022611Y017841D02*
D03*
X022628Y019141D02*
D03*
X022477Y019167D02*
D03*
X0226Y018299D02*
D03*
X022429Y019496D02*
D03*
X021889Y020186D02*
D03*
X020845Y020786D02*
D03*
X021657Y020459D02*
D03*
X020508Y020908D02*
D03*
X019641Y020785D02*
D03*
X019666Y020936D02*
D03*
X017873Y018804D02*
D03*
X017996Y017936D02*
D03*
X020933Y020907D02*
D03*
X017875Y019205D02*
D03*
X017993Y019107D02*
D03*
X01832Y01992D02*
D03*
X018078Y017572D02*
D03*
X018475Y016829D02*
D03*
X019286Y020721D02*
D03*
X018857Y01661D02*
D03*
X019573Y016165D02*
D03*
X019699Y016344D02*
D03*
X021526Y018329D02*
D03*
X021526Y018515D02*
D03*
X021527Y018696D02*
D03*
X021552Y018423D02*
D03*
X021551Y018605D02*
D03*
X020469Y016825D02*
D03*
D53*
X02215Y017283D02*
D03*
X022312Y017109D02*
D03*
X021323Y016266D02*
D03*
X02127Y016498D02*
D03*
X022524Y018406D02*
D03*
X022751Y018336D02*
D03*
X022502Y01964D02*
D03*
X02227Y019587D02*
D03*
X021499Y020445D02*
D03*
X021673Y020607D02*
D03*
X020447Y021044D02*
D03*
X020377Y020816D02*
D03*
X019221Y020577D02*
D03*
X019168Y02081D02*
D03*
X018203Y017516D02*
D03*
X017971Y017463D02*
D03*
X017735Y01871D02*
D03*
X017962Y01864D02*
D03*
X019008Y016623D02*
D03*
X018833Y016461D02*
D03*
X018174Y019966D02*
D03*
X018336Y019792D02*
D03*
X020138Y016252D02*
D03*
X020068Y016025D02*
D03*
X020177Y016616D02*
D03*
X020161Y016835D02*
D03*
X020709Y016409D02*
D03*
X019985Y016756D02*
D03*
D54*
X021012Y018585D02*
D03*
D55*
X021064Y018607D02*
G03*
X021012Y018585I0J-000074D01*
G01*
X020166Y01774D02*
G03*
X020092Y01756I00018J-00018D01*
G01*
X020485Y017013D02*
G03*
X02051Y016953I000102J000007D01*
G01*
X020541Y017738D02*
G03*
X020485Y017602I000136J-000136D01*
G01*
X021332Y018423D02*
G03*
X021152Y018349I0J-000254D01*
G01*
X021245Y018515D02*
G03*
X021065Y01844I0J-000254D01*
G01*
X020314Y017689D02*
G03*
X02024Y017509I00018J-00018D01*
G01*
X020165Y01684D02*
G03*
X02024Y017019I-00018J00018D01*
G01*
X020059Y017042D02*
G03*
X020092Y017122I-00008J00008D01*
G01*
X021058Y018605D02*
X021551D01*
X021012Y018585D02*
X021012Y018585D01*
X020166Y01774D02*
X021012Y018585D01*
X020092Y017165D02*
Y01756D01*
X020485Y017013D02*
Y017602D01*
Y017011D02*
Y017013D01*
X020541Y017738D02*
X021031Y018227D01*
X021023Y018219D02*
X021152Y018349D01*
X021245Y018515D02*
X021526D01*
X020314Y017689D02*
X021065Y01844D01*
X02024Y017031D02*
Y017509D01*
X021332Y018423D02*
X021552D01*
X020092Y017122D02*
Y017173D01*
M02*
