G04 Layer_Color=128*
%FSTAX42Y42*%
%MOMM*%
G71*
G01*
G75*
%ADD142C,0.13*%
D142*
X018357Y017011D02*
X018497D01*
X018427Y016941D02*
Y017081D01*
X021988Y020065D02*
X022128D01*
X022058Y019995D02*
Y020135D01*
X01857Y020285D02*
X01871D01*
X01864Y020215D02*
Y020355D01*
X021777Y016787D02*
X021917D01*
X021847Y016717D02*
Y016857D01*
X02165Y016769D02*
X02168D01*
X021665Y016754D02*
Y016784D01*
X021766Y016998D02*
X021796D01*
X021781Y016983D02*
Y017013D01*
X018604Y016882D02*
X018634D01*
X018619Y016867D02*
Y016897D01*
X017836Y01795D02*
X017866D01*
X017851Y017935D02*
Y017965D01*
X01886Y02025D02*
X01889D01*
X018875Y020235D02*
Y020265D01*
X0187Y020068D02*
X01873D01*
X018715Y020052D02*
Y020082D01*
X021915Y020312D02*
X021945D01*
X02193Y020298D02*
Y020327D01*
X021186Y016354D02*
X021216D01*
X021201Y016339D02*
Y016369D01*
X02213Y017283D02*
X022171D01*
X02215Y017263D02*
Y017304D01*
X022292Y017109D02*
X022333D01*
X022312Y017089D02*
Y01713D01*
X021302Y016266D02*
X021344D01*
X021323Y016245D02*
Y016286D01*
X020809Y01614D02*
X020839D01*
X020824Y016125D02*
Y016155D01*
X021249Y016498D02*
X02129D01*
X02127Y016477D02*
Y016518D01*
X019968Y016167D02*
X019998D01*
X019983Y016152D02*
Y016182D01*
X022151Y017126D02*
X022181D01*
X022166Y017111D02*
Y017141D01*
X022503Y018406D02*
X022544D01*
X022524Y018385D02*
Y018426D01*
X022479Y017938D02*
X022509D01*
X022494Y017923D02*
Y017953D01*
X022596Y017841D02*
X022626D01*
X022611Y017826D02*
Y017856D01*
X022731Y018336D02*
X022772D01*
X022751Y018315D02*
Y018356D01*
X022481Y01964D02*
X022522D01*
X022502Y019619D02*
Y01966D01*
X022613Y019141D02*
X022643D01*
X022628Y019126D02*
Y019156D01*
X022462Y019167D02*
X022492D01*
X022477Y019152D02*
Y019182D01*
X022249Y019587D02*
X02229D01*
X02227Y019566D02*
Y019607D01*
X022585Y018299D02*
X022615D01*
X0226Y018284D02*
Y018314D01*
X022414Y019496D02*
X022444D01*
X022429Y019481D02*
Y019511D01*
X021479Y020445D02*
X02152D01*
X021499Y020425D02*
Y020466D01*
X021874Y020186D02*
X021904D01*
X021889Y020171D02*
Y020201D01*
X021653Y020607D02*
X021694D01*
X021673Y020587D02*
Y020628D01*
X020427Y021044D02*
X020468D01*
X020447Y021023D02*
Y021064D01*
X02083Y020786D02*
X02086D01*
X020845Y020771D02*
Y020801D01*
X020357Y020816D02*
X020398D01*
X020377Y020796D02*
Y020837D01*
X021642Y020459D02*
X021672D01*
X021657Y020444D02*
Y020474D01*
X020493Y020908D02*
X020523D01*
X020508Y020893D02*
Y020923D01*
X0192Y020577D02*
X019241D01*
X019221Y020557D02*
Y020598D01*
X019626Y020785D02*
X019656D01*
X019641Y02077D02*
Y0208D01*
X019651Y020936D02*
X019681D01*
X019666Y020921D02*
Y020951D01*
X019147Y02081D02*
X019188D01*
X019168Y020789D02*
Y02083D01*
X017858Y018804D02*
X017888D01*
X017873Y018789D02*
Y018819D01*
X018183Y017516D02*
X018224D01*
X018203Y017496D02*
Y017537D01*
X017981Y017936D02*
X018011D01*
X017996Y017921D02*
Y017951D01*
X020918Y020907D02*
X020948D01*
X020933Y020892D02*
Y020922D01*
X017951Y017463D02*
X017992D01*
X017971Y017443D02*
Y017484D01*
X017714Y01871D02*
X017756D01*
X017735Y018689D02*
Y018731D01*
X01786Y019205D02*
X01789D01*
X017875Y01919D02*
Y01922D01*
X017977Y019107D02*
X018007D01*
X017993Y019093D02*
Y019123D01*
X017942Y01864D02*
X017983D01*
X017962Y018619D02*
Y018661D01*
X018305Y01992D02*
X018335D01*
X01832Y019905D02*
Y019935D01*
X018063Y017572D02*
X018093D01*
X018078Y017557D02*
Y017587D01*
X018987Y016623D02*
X019028D01*
X019008Y016602D02*
Y016643D01*
X01846Y016829D02*
X01849D01*
X018475Y016814D02*
Y016844D01*
X018813Y016461D02*
X018854D01*
X018833Y01644D02*
Y016481D01*
X018153Y019966D02*
X018194D01*
X018174Y019946D02*
Y019987D01*
X018315Y019792D02*
X018357D01*
X018336Y019771D02*
Y019812D01*
X019271Y020721D02*
X019301D01*
X019286Y020706D02*
Y020736D01*
X018843Y01661D02*
X018873D01*
X018857Y016595D02*
Y016625D01*
X020117Y016252D02*
X020158D01*
X020138Y016232D02*
Y016273D01*
X020047Y016025D02*
X020088D01*
X020068Y016004D02*
Y016046D01*
X019557Y016165D02*
X019588D01*
X019573Y01615D02*
Y01618D01*
X019684Y016344D02*
X019714D01*
X019699Y016329D02*
Y016359D01*
X020157Y016616D02*
X020198D01*
X020177Y016596D02*
Y016637D01*
X02014Y016835D02*
X020181D01*
X020161Y016815D02*
Y016856D01*
X020689Y016409D02*
X02073D01*
X020709Y016388D02*
Y016429D01*
X021506Y018329D02*
X021546D01*
X021526Y018309D02*
Y018349D01*
X021506Y018515D02*
X021546D01*
X021526Y018495D02*
Y018535D01*
X021507Y018696D02*
X021547D01*
X021527Y018676D02*
Y018716D01*
X021532Y018423D02*
X021572D01*
X021552Y018403D02*
Y018443D01*
X021531Y018605D02*
X021571D01*
X021551Y018585D02*
Y018625D01*
X019964Y016756D02*
X020005D01*
X019985Y016736D02*
Y016777D01*
X020454Y016825D02*
X020484D01*
X020469Y01681D02*
Y01684D01*
M02*
