M48
;Layer_Color=9474304
;FILE_FORMAT=4:2
METRIC,LZ
;TYPE=PLATED
T1F00S00C0.30
T2F00S00C0.40
T3F00S00C0.41
%
T01
X018475Y016829
X018619Y016882
X018857Y01661
X019699Y016344
X019573Y016165
X018078Y017572
X017996Y017936
X017851Y01795
X017873Y018804
X017875Y019205
X017993Y019107
X022477Y019167
X022628Y019141
X022429Y019496
X0226Y018299
X022494Y017938
X022611Y017841
X022166Y017126
X021781Y016998
X021665Y016769
X021201Y016354
X020824Y01614
X019983Y016167
X020469Y016825
X020508Y020908
X020933Y020907
X020845Y020786
X021657Y020459
X02193Y020312
X021889Y020186
X019641Y020785
X019666Y020936
X019286Y020721
X018875Y02025
X018715Y020068
X01832Y01992
T02
X021526Y018329
X021552Y018423
X021526Y018515
X021551Y018605
X021527Y018696
T03
X018833Y016461
X019008Y016623
X018203Y017516
X017971Y017463
X017962Y01864
X017735Y01871
X018336Y019792
X02227Y019587
X022502Y01964
X022524Y018406
X022751Y018336
X02215Y017283
X022312Y017109
X02127Y016498
X021323Y016266
X020709Y016409
X020138Y016252
X020068Y016025
X020177Y016616
X020161Y016835
X019985Y016756
X020377Y020816
X020447Y021044
X021499Y020445
X021673Y020607
X019221Y020577
X019168Y02081
X018174Y019966
M30
