G04 Layer_Color=8388736*
%FSTAX42Y42*%
%MOMM*%
G71*
G01*
G75*
%ADD97R,0.49X0.99*%
%ADD98R,0.65X0.60*%
%ADD99R,2.70X0.40*%
G04:AMPARAMS|DCode=100|XSize=0.6mm|YSize=0.75mm|CornerRadius=0mm|HoleSize=0mm|Usage=FLASHONLY|Rotation=290.000|XOffset=0mm|YOffset=0mm|HoleType=Round|Shape=Rectangle|*
%AMROTATEDRECTD100*
4,1,4,-0.45,0.15,0.25,0.41,0.45,-0.15,-0.25,-0.41,-0.45,0.15,0.0*
%
%ADD100ROTATEDRECTD100*%

G04:AMPARAMS|DCode=101|XSize=1.14mm|YSize=1.64mm|CornerRadius=0mm|HoleSize=0mm|Usage=FLASHONLY|Rotation=296.400|XOffset=0mm|YOffset=0mm|HoleType=Round|Shape=Rectangle|*
%AMROTATEDRECTD101*
4,1,4,-0.99,0.15,0.48,0.88,0.99,-0.15,-0.48,-0.88,-0.99,0.15,0.0*
%
%ADD101ROTATEDRECTD101*%

%ADD102R,0.60X0.75*%
%ADD103R,0.60X0.65*%
G04:AMPARAMS|DCode=104|XSize=0.6mm|YSize=0.65mm|CornerRadius=0mm|HoleSize=0mm|Usage=FLASHONLY|Rotation=255.000|XOffset=0mm|YOffset=0mm|HoleType=Round|Shape=Rectangle|*
%AMROTATEDRECTD104*
4,1,4,-0.24,0.37,0.39,0.20,0.24,-0.37,-0.39,-0.20,-0.24,0.37,0.0*
%
%ADD104ROTATEDRECTD104*%

G04:AMPARAMS|DCode=105|XSize=0.6mm|YSize=0.75mm|CornerRadius=0mm|HoleSize=0mm|Usage=FLASHONLY|Rotation=249.000|XOffset=0mm|YOffset=0mm|HoleType=Round|Shape=Rectangle|*
%AMROTATEDRECTD105*
4,1,4,-0.24,0.41,0.46,0.14,0.24,-0.41,-0.46,-0.14,-0.24,0.41,0.0*
%
%ADD105ROTATEDRECTD105*%

G04:AMPARAMS|DCode=106|XSize=0.6mm|YSize=0.75mm|CornerRadius=0mm|HoleSize=0mm|Usage=FLASHONLY|Rotation=260.000|XOffset=0mm|YOffset=0mm|HoleType=Round|Shape=Rectangle|*
%AMROTATEDRECTD106*
4,1,4,-0.32,0.36,0.42,0.23,0.32,-0.36,-0.42,-0.23,-0.32,0.36,0.0*
%
%ADD106ROTATEDRECTD106*%

G04:AMPARAMS|DCode=107|XSize=0.6mm|YSize=0.75mm|CornerRadius=0mm|HoleSize=0mm|Usage=FLASHONLY|Rotation=230.000|XOffset=0mm|YOffset=0mm|HoleType=Round|Shape=Rectangle|*
%AMROTATEDRECTD107*
4,1,4,-0.10,0.47,0.48,-0.01,0.10,-0.47,-0.48,0.01,-0.10,0.47,0.0*
%
%ADD107ROTATEDRECTD107*%

G04:AMPARAMS|DCode=108|XSize=0.6mm|YSize=0.75mm|CornerRadius=0mm|HoleSize=0mm|Usage=FLASHONLY|Rotation=200.000|XOffset=0mm|YOffset=0mm|HoleType=Round|Shape=Rectangle|*
%AMROTATEDRECTD108*
4,1,4,0.15,0.45,0.41,-0.25,-0.15,-0.45,-0.41,0.25,0.15,0.45,0.0*
%
%ADD108ROTATEDRECTD108*%

G04:AMPARAMS|DCode=109|XSize=0.6mm|YSize=0.75mm|CornerRadius=0mm|HoleSize=0mm|Usage=FLASHONLY|Rotation=175.000|XOffset=0mm|YOffset=0mm|HoleType=Round|Shape=Rectangle|*
%AMROTATEDRECTD109*
4,1,4,0.33,0.35,0.26,-0.40,-0.33,-0.35,-0.26,0.40,0.33,0.35,0.0*
%
%ADD109ROTATEDRECTD109*%

G04:AMPARAMS|DCode=110|XSize=0.6mm|YSize=0.75mm|CornerRadius=0mm|HoleSize=0mm|Usage=FLASHONLY|Rotation=130.000|XOffset=0mm|YOffset=0mm|HoleType=Round|Shape=Rectangle|*
%AMROTATEDRECTD110*
4,1,4,0.48,0.01,-0.10,-0.47,-0.48,-0.01,0.10,0.47,0.48,0.01,0.0*
%
%ADD110ROTATEDRECTD110*%

G04:AMPARAMS|DCode=111|XSize=0.6mm|YSize=0.75mm|CornerRadius=0mm|HoleSize=0mm|Usage=FLASHONLY|Rotation=70.000|XOffset=0mm|YOffset=0mm|HoleType=Round|Shape=Rectangle|*
%AMROTATEDRECTD111*
4,1,4,0.25,-0.41,-0.45,-0.15,-0.25,0.41,0.45,0.15,0.25,-0.41,0.0*
%
%ADD111ROTATEDRECTD111*%

G04:AMPARAMS|DCode=112|XSize=0.6mm|YSize=0.75mm|CornerRadius=0mm|HoleSize=0mm|Usage=FLASHONLY|Rotation=145.000|XOffset=0mm|YOffset=0mm|HoleType=Round|Shape=Rectangle|*
%AMROTATEDRECTD112*
4,1,4,0.46,0.14,0.03,-0.48,-0.46,-0.14,-0.03,0.48,0.46,0.14,0.0*
%
%ADD112ROTATEDRECTD112*%

G04:AMPARAMS|DCode=113|XSize=0.6mm|YSize=0.75mm|CornerRadius=0mm|HoleSize=0mm|Usage=FLASHONLY|Rotation=81.000|XOffset=0mm|YOffset=0mm|HoleType=Round|Shape=Rectangle|*
%AMROTATEDRECTD113*
4,1,4,0.32,-0.35,-0.42,-0.24,-0.32,0.35,0.42,0.24,0.32,-0.35,0.0*
%
%ADD113ROTATEDRECTD113*%

G04:AMPARAMS|DCode=114|XSize=0.6mm|YSize=0.75mm|CornerRadius=0mm|HoleSize=0mm|Usage=FLASHONLY|Rotation=40.000|XOffset=0mm|YOffset=0mm|HoleType=Round|Shape=Rectangle|*
%AMROTATEDRECTD114*
4,1,4,0.01,-0.48,-0.47,0.10,-0.01,0.48,0.47,-0.10,0.01,-0.48,0.0*
%
%ADD114ROTATEDRECTD114*%

G04:AMPARAMS|DCode=115|XSize=0.6mm|YSize=0.75mm|CornerRadius=0mm|HoleSize=0mm|Usage=FLASHONLY|Rotation=190.000|XOffset=0mm|YOffset=0mm|HoleType=Round|Shape=Rectangle|*
%AMROTATEDRECTD115*
4,1,4,0.23,0.42,0.36,-0.32,-0.23,-0.42,-0.36,0.32,0.23,0.42,0.0*
%
%ADD115ROTATEDRECTD115*%

G04:AMPARAMS|DCode=116|XSize=0.6mm|YSize=0.75mm|CornerRadius=0mm|HoleSize=0mm|Usage=FLASHONLY|Rotation=298.000|XOffset=0mm|YOffset=0mm|HoleType=Round|Shape=Rectangle|*
%AMROTATEDRECTD116*
4,1,4,-0.47,0.09,0.19,0.44,0.47,-0.09,-0.19,-0.44,-0.47,0.09,0.0*
%
%ADD116ROTATEDRECTD116*%

G04:AMPARAMS|DCode=117|XSize=0.6mm|YSize=0.75mm|CornerRadius=0mm|HoleSize=0mm|Usage=FLASHONLY|Rotation=21.000|XOffset=0mm|YOffset=0mm|HoleType=Round|Shape=Rectangle|*
%AMROTATEDRECTD117*
4,1,4,-0.14,-0.46,-0.41,0.24,0.14,0.46,0.41,-0.24,-0.14,-0.46,0.0*
%
%ADD117ROTATEDRECTD117*%

G04:AMPARAMS|DCode=118|XSize=0.6mm|YSize=0.75mm|CornerRadius=0mm|HoleSize=0mm|Usage=FLASHONLY|Rotation=350.000|XOffset=0mm|YOffset=0mm|HoleType=Round|Shape=Rectangle|*
%AMROTATEDRECTD118*
4,1,4,-0.36,-0.32,-0.23,0.42,0.36,0.32,0.23,-0.42,-0.36,-0.32,0.0*
%
%ADD118ROTATEDRECTD118*%

G04:AMPARAMS|DCode=119|XSize=0.6mm|YSize=0.75mm|CornerRadius=0mm|HoleSize=0mm|Usage=FLASHONLY|Rotation=320.000|XOffset=0mm|YOffset=0mm|HoleType=Round|Shape=Rectangle|*
%AMROTATEDRECTD119*
4,1,4,-0.47,-0.10,0.01,0.48,0.47,0.10,-0.01,-0.48,-0.47,-0.10,0.0*
%
%ADD119ROTATEDRECTD119*%

G04:AMPARAMS|DCode=120|XSize=0.6mm|YSize=0.65mm|CornerRadius=0mm|HoleSize=0mm|Usage=FLASHONLY|Rotation=105.000|XOffset=0mm|YOffset=0mm|HoleType=Round|Shape=Rectangle|*
%AMROTATEDRECTD120*
4,1,4,0.39,-0.20,-0.24,-0.37,-0.39,0.20,0.24,0.37,0.39,-0.20,0.0*
%
%ADD120ROTATEDRECTD120*%

G04:AMPARAMS|DCode=121|XSize=0.6mm|YSize=0.65mm|CornerRadius=0mm|HoleSize=0mm|Usage=FLASHONLY|Rotation=65.000|XOffset=0mm|YOffset=0mm|HoleType=Round|Shape=Rectangle|*
%AMROTATEDRECTD121*
4,1,4,0.17,-0.41,-0.42,-0.13,-0.17,0.41,0.42,0.13,0.17,-0.41,0.0*
%
%ADD121ROTATEDRECTD121*%

G04:AMPARAMS|DCode=122|XSize=0.6mm|YSize=0.65mm|CornerRadius=0mm|HoleSize=0mm|Usage=FLASHONLY|Rotation=30.000|XOffset=0mm|YOffset=0mm|HoleType=Round|Shape=Rectangle|*
%AMROTATEDRECTD122*
4,1,4,-0.10,-0.43,-0.42,0.13,0.10,0.43,0.42,-0.13,-0.10,-0.43,0.0*
%
%ADD122ROTATEDRECTD122*%

G04:AMPARAMS|DCode=123|XSize=0.6mm|YSize=0.65mm|CornerRadius=0mm|HoleSize=0mm|Usage=FLASHONLY|Rotation=330.000|XOffset=0mm|YOffset=0mm|HoleType=Round|Shape=Rectangle|*
%AMROTATEDRECTD123*
4,1,4,-0.42,-0.13,-0.10,0.43,0.42,0.13,0.10,-0.43,-0.42,-0.13,0.0*
%
%ADD123ROTATEDRECTD123*%

G04:AMPARAMS|DCode=124|XSize=0.6mm|YSize=0.65mm|CornerRadius=0mm|HoleSize=0mm|Usage=FLASHONLY|Rotation=300.000|XOffset=0mm|YOffset=0mm|HoleType=Round|Shape=Rectangle|*
%AMROTATEDRECTD124*
4,1,4,-0.43,0.10,0.13,0.42,0.43,-0.10,-0.13,-0.42,-0.43,0.10,0.0*
%
%ADD124ROTATEDRECTD124*%

G04:AMPARAMS|DCode=125|XSize=0.6mm|YSize=0.65mm|CornerRadius=0mm|HoleSize=0mm|Usage=FLASHONLY|Rotation=240.000|XOffset=0mm|YOffset=0mm|HoleType=Round|Shape=Rectangle|*
%AMROTATEDRECTD125*
4,1,4,-0.13,0.42,0.43,0.10,0.13,-0.42,-0.43,-0.10,-0.13,0.42,0.0*
%
%ADD125ROTATEDRECTD125*%

G04:AMPARAMS|DCode=126|XSize=1.14mm|YSize=1.64mm|CornerRadius=0mm|HoleSize=0mm|Usage=FLASHONLY|Rotation=266.000|XOffset=0mm|YOffset=0mm|HoleType=Round|Shape=Rectangle|*
%AMROTATEDRECTD126*
4,1,4,-0.78,0.63,0.86,0.51,0.78,-0.63,-0.86,-0.51,-0.78,0.63,0.0*
%
%ADD126ROTATEDRECTD126*%

G04:AMPARAMS|DCode=127|XSize=1.14mm|YSize=1.64mm|CornerRadius=0mm|HoleSize=0mm|Usage=FLASHONLY|Rotation=236.500|XOffset=0mm|YOffset=0mm|HoleType=Round|Shape=Rectangle|*
%AMROTATEDRECTD127*
4,1,4,-0.37,0.93,1.00,0.02,0.37,-0.93,-1.00,-0.02,-0.37,0.93,0.0*
%
%ADD127ROTATEDRECTD127*%

G04:AMPARAMS|DCode=128|XSize=1.14mm|YSize=1.64mm|CornerRadius=0mm|HoleSize=0mm|Usage=FLASHONLY|Rotation=207.000|XOffset=0mm|YOffset=0mm|HoleType=Round|Shape=Rectangle|*
%AMROTATEDRECTD128*
4,1,4,0.14,0.99,0.88,-0.47,-0.14,-0.99,-0.88,0.47,0.14,0.99,0.0*
%
%ADD128ROTATEDRECTD128*%

G04:AMPARAMS|DCode=129|XSize=1.14mm|YSize=1.64mm|CornerRadius=0mm|HoleSize=0mm|Usage=FLASHONLY|Rotation=176.400|XOffset=0mm|YOffset=0mm|HoleType=Round|Shape=Rectangle|*
%AMROTATEDRECTD129*
4,1,4,0.62,0.78,0.52,-0.85,-0.62,-0.78,-0.52,0.85,0.62,0.78,0.0*
%
%ADD129ROTATEDRECTD129*%

G04:AMPARAMS|DCode=130|XSize=1.14mm|YSize=1.64mm|CornerRadius=0mm|HoleSize=0mm|Usage=FLASHONLY|Rotation=146.000|XOffset=0mm|YOffset=0mm|HoleType=Round|Shape=Rectangle|*
%AMROTATEDRECTD130*
4,1,4,0.93,0.36,0.01,-1.00,-0.93,-0.36,-0.01,1.00,0.93,0.36,0.0*
%
%ADD130ROTATEDRECTD130*%

G04:AMPARAMS|DCode=131|XSize=1.14mm|YSize=1.64mm|CornerRadius=0mm|HoleSize=0mm|Usage=FLASHONLY|Rotation=26.400|XOffset=0mm|YOffset=0mm|HoleType=Round|Shape=Rectangle|*
%AMROTATEDRECTD131*
4,1,4,-0.15,-0.99,-0.88,0.48,0.15,0.99,0.88,-0.48,-0.15,-0.99,0.0*
%
%ADD131ROTATEDRECTD131*%

%ADD132C,1.34*%
D97*
X02034Y016515D02*
D03*
X020405Y016515D02*
D03*
X02047D02*
D03*
X02047Y016705D02*
D03*
X020405D02*
D03*
X02034Y016705D02*
D03*
D98*
X020525Y016133D02*
D03*
Y016037D02*
D03*
X020568Y016336D02*
D03*
X020568Y016432D02*
D03*
X019995Y020989D02*
D03*
Y021086D02*
D03*
D99*
X021777Y018613D02*
D03*
Y018563D02*
D03*
Y018513D02*
D03*
Y018463D02*
D03*
Y018413D02*
D03*
D100*
X020926Y016173D02*
D03*
X020959Y016082D02*
D03*
X019585Y020909D02*
D03*
X019552Y020999D02*
D03*
D101*
X021443Y016663D02*
D03*
X021586Y016376D02*
D03*
X021514Y016519D02*
D03*
X021075Y016301D02*
D03*
X021147Y016158D02*
D03*
X021004Y016445D02*
D03*
X019047Y020413D02*
D03*
X018905Y020699D02*
D03*
X018976Y020556D02*
D03*
X019415Y020775D02*
D03*
X019343Y020918D02*
D03*
X019486Y020631D02*
D03*
D102*
X020224Y016718D02*
D03*
X020127D02*
D03*
X01794Y01824D02*
D03*
X017843Y01824D02*
D03*
D103*
X020033Y016674D02*
D03*
X019936D02*
D03*
X020034Y016503D02*
D03*
X019937D02*
D03*
X020383Y016824D02*
D03*
X020287D02*
D03*
X020133Y016505D02*
D03*
X020229D02*
D03*
X020035Y01684D02*
D03*
X019938D02*
D03*
X017791Y018298D02*
D03*
X017694D02*
D03*
X022617Y018795D02*
D03*
X022713D02*
D03*
D104*
X019563Y016361D02*
D03*
X019588Y016454D02*
D03*
D105*
X019435Y016313D02*
D03*
X0194Y016222D02*
D03*
D106*
X019654Y016148D02*
D03*
X019637Y016053D02*
D03*
D107*
X018539Y016769D02*
D03*
X018476Y016696D02*
D03*
D108*
X017878Y017869D02*
D03*
X017787Y017836D02*
D03*
D109*
X017858Y019116D02*
D03*
X017762Y019124D02*
D03*
D110*
X018797Y020413D02*
D03*
X018735Y020487D02*
D03*
D111*
X021069Y020761D02*
D03*
X021102Y020852D02*
D03*
D112*
X018462Y020232D02*
D03*
X018383Y020288D02*
D03*
D113*
X020859Y020921D02*
D03*
X020874Y021016D02*
D03*
D114*
X021995Y020257D02*
D03*
X022069Y020319D02*
D03*
D115*
X022525Y018946D02*
D03*
X02243Y018929D02*
D03*
D116*
X021601Y016731D02*
D03*
X021647Y016646D02*
D03*
D117*
X022601Y019222D02*
D03*
X022691Y019257D02*
D03*
D118*
X022632Y017936D02*
D03*
X022728Y017919D02*
D03*
D119*
X022041Y016864D02*
D03*
X022114Y016801D02*
D03*
D120*
X020702Y016305D02*
D03*
X020727Y016212D02*
D03*
D121*
X01925Y016286D02*
D03*
X01921Y016199D02*
D03*
D122*
X018259Y017099D02*
D03*
X018176Y017051D02*
D03*
X022243Y019978D02*
D03*
X022327Y020027D02*
D03*
D123*
X017997Y019521D02*
D03*
X017913Y019569D02*
D03*
X022491Y017527D02*
D03*
X022574Y017478D02*
D03*
D124*
X018804Y020536D02*
D03*
X018756Y020619D02*
D03*
X021693Y016549D02*
D03*
X021742Y016466D02*
D03*
D125*
X021256Y020786D02*
D03*
X021304Y020869D02*
D03*
D126*
X020347Y016313D02*
D03*
X020325Y015994D02*
D03*
X020336Y016153D02*
D03*
X019847Y016187D02*
D03*
X019836Y016028D02*
D03*
X019858Y016347D02*
D03*
X020145Y02076D02*
D03*
X020164Y02108D02*
D03*
X020155Y02092D02*
D03*
X020644Y02089D02*
D03*
X020654Y02105D02*
D03*
X020634Y020731D02*
D03*
D127*
X019221Y016561D02*
D03*
X019044Y016294D02*
D03*
X019132Y016428D02*
D03*
X018724Y016698D02*
D03*
X018635Y016565D02*
D03*
X018812Y016832D02*
D03*
X02127Y020513D02*
D03*
X021447Y02078D02*
D03*
X021358Y020647D02*
D03*
X021766Y020375D02*
D03*
X021855Y020509D02*
D03*
X021678Y020242D02*
D03*
D128*
X018368Y017343D02*
D03*
X018083Y017198D02*
D03*
X018225Y01727D02*
D03*
X018003Y017707D02*
D03*
X01786Y017634D02*
D03*
X018146Y01778D02*
D03*
D129*
X01802Y018437D02*
D03*
X0177Y018458D02*
D03*
X01786Y018448D02*
D03*
X017891Y018937D02*
D03*
X017731Y018947D02*
D03*
X01805Y018927D02*
D03*
X022468Y018638D02*
D03*
X022787Y018618D02*
D03*
X022628Y018628D02*
D03*
X022597Y018139D02*
D03*
X022757Y018129D02*
D03*
X022437Y018149D02*
D03*
D130*
X018268Y019562D02*
D03*
X018003Y019741D02*
D03*
X018135Y019652D02*
D03*
X01841Y020058D02*
D03*
X018277Y020148D02*
D03*
X018542Y019969D02*
D03*
X022218Y017513D02*
D03*
X022485Y017336D02*
D03*
X022352Y017424D02*
D03*
X02208Y017016D02*
D03*
X022214Y016928D02*
D03*
X021947Y017105D02*
D03*
D131*
X02212Y019736D02*
D03*
X022407Y019878D02*
D03*
X022263Y019807D02*
D03*
X022481Y019368D02*
D03*
X022624Y019439D02*
D03*
X022338Y019297D02*
D03*
D132*
X018427Y017011D02*
D03*
X022058Y020065D02*
D03*
X01864Y020285D02*
D03*
X021847Y016787D02*
D03*
M02*
