G04 Layer_Color=255*
%FSTAX42Y42*%
%MOMM*%
G71*
G01*
G75*
%ADD15R,0.35X0.85*%
%ADD16R,0.51X0.46*%
%ADD17R,2.60X0.30*%
G04:AMPARAMS|DCode=18|XSize=0.46mm|YSize=0.61mm|CornerRadius=0mm|HoleSize=0mm|Usage=FLASHONLY|Rotation=290.000|XOffset=0mm|YOffset=0mm|HoleType=Round|Shape=Rectangle|*
%AMROTATEDRECTD18*
4,1,4,-0.36,0.11,0.21,0.32,0.36,-0.11,-0.21,-0.32,-0.36,0.11,0.0*
%
%ADD18ROTATEDRECTD18*%

G04:AMPARAMS|DCode=19|XSize=1mm|YSize=1.5mm|CornerRadius=0mm|HoleSize=0mm|Usage=FLASHONLY|Rotation=296.400|XOffset=0mm|YOffset=0mm|HoleType=Round|Shape=Rectangle|*
%AMROTATEDRECTD19*
4,1,4,-0.89,0.11,0.45,0.78,0.89,-0.11,-0.45,-0.78,-0.89,0.11,0.0*
%
%ADD19ROTATEDRECTD19*%

%ADD20R,0.46X0.61*%
%ADD21R,0.46X0.51*%
G04:AMPARAMS|DCode=22|XSize=0.46mm|YSize=0.51mm|CornerRadius=0mm|HoleSize=0mm|Usage=FLASHONLY|Rotation=255.000|XOffset=0mm|YOffset=0mm|HoleType=Round|Shape=Rectangle|*
%AMROTATEDRECTD22*
4,1,4,-0.19,0.29,0.30,0.16,0.19,-0.29,-0.30,-0.16,-0.19,0.29,0.0*
%
%ADD22ROTATEDRECTD22*%

G04:AMPARAMS|DCode=23|XSize=0.46mm|YSize=0.61mm|CornerRadius=0mm|HoleSize=0mm|Usage=FLASHONLY|Rotation=249.000|XOffset=0mm|YOffset=0mm|HoleType=Round|Shape=Rectangle|*
%AMROTATEDRECTD23*
4,1,4,-0.20,0.32,0.37,0.10,0.20,-0.32,-0.37,-0.10,-0.20,0.32,0.0*
%
%ADD23ROTATEDRECTD23*%

G04:AMPARAMS|DCode=24|XSize=0.46mm|YSize=0.61mm|CornerRadius=0mm|HoleSize=0mm|Usage=FLASHONLY|Rotation=260.000|XOffset=0mm|YOffset=0mm|HoleType=Round|Shape=Rectangle|*
%AMROTATEDRECTD24*
4,1,4,-0.26,0.28,0.34,0.17,0.26,-0.28,-0.34,-0.17,-0.26,0.28,0.0*
%
%ADD24ROTATEDRECTD24*%

G04:AMPARAMS|DCode=25|XSize=0.46mm|YSize=0.61mm|CornerRadius=0mm|HoleSize=0mm|Usage=FLASHONLY|Rotation=230.000|XOffset=0mm|YOffset=0mm|HoleType=Round|Shape=Rectangle|*
%AMROTATEDRECTD25*
4,1,4,-0.09,0.37,0.38,-0.02,0.09,-0.37,-0.38,0.02,-0.09,0.37,0.0*
%
%ADD25ROTATEDRECTD25*%

G04:AMPARAMS|DCode=26|XSize=0.46mm|YSize=0.61mm|CornerRadius=0mm|HoleSize=0mm|Usage=FLASHONLY|Rotation=200.000|XOffset=0mm|YOffset=0mm|HoleType=Round|Shape=Rectangle|*
%AMROTATEDRECTD26*
4,1,4,0.11,0.36,0.32,-0.21,-0.11,-0.36,-0.32,0.21,0.11,0.36,0.0*
%
%ADD26ROTATEDRECTD26*%

G04:AMPARAMS|DCode=27|XSize=0.46mm|YSize=0.61mm|CornerRadius=0mm|HoleSize=0mm|Usage=FLASHONLY|Rotation=175.000|XOffset=0mm|YOffset=0mm|HoleType=Round|Shape=Rectangle|*
%AMROTATEDRECTD27*
4,1,4,0.25,0.28,0.20,-0.32,-0.25,-0.28,-0.20,0.32,0.25,0.28,0.0*
%
%ADD27ROTATEDRECTD27*%

G04:AMPARAMS|DCode=28|XSize=0.46mm|YSize=0.61mm|CornerRadius=0mm|HoleSize=0mm|Usage=FLASHONLY|Rotation=130.000|XOffset=0mm|YOffset=0mm|HoleType=Round|Shape=Rectangle|*
%AMROTATEDRECTD28*
4,1,4,0.38,0.02,-0.09,-0.37,-0.38,-0.02,0.09,0.37,0.38,0.02,0.0*
%
%ADD28ROTATEDRECTD28*%

G04:AMPARAMS|DCode=29|XSize=0.46mm|YSize=0.61mm|CornerRadius=0mm|HoleSize=0mm|Usage=FLASHONLY|Rotation=70.000|XOffset=0mm|YOffset=0mm|HoleType=Round|Shape=Rectangle|*
%AMROTATEDRECTD29*
4,1,4,0.21,-0.32,-0.36,-0.11,-0.21,0.32,0.36,0.11,0.21,-0.32,0.0*
%
%ADD29ROTATEDRECTD29*%

G04:AMPARAMS|DCode=30|XSize=0.46mm|YSize=0.61mm|CornerRadius=0mm|HoleSize=0mm|Usage=FLASHONLY|Rotation=145.000|XOffset=0mm|YOffset=0mm|HoleType=Round|Shape=Rectangle|*
%AMROTATEDRECTD30*
4,1,4,0.36,0.12,0.01,-0.38,-0.36,-0.12,-0.01,0.38,0.36,0.12,0.0*
%
%ADD30ROTATEDRECTD30*%

G04:AMPARAMS|DCode=31|XSize=0.46mm|YSize=0.61mm|CornerRadius=0mm|HoleSize=0mm|Usage=FLASHONLY|Rotation=81.000|XOffset=0mm|YOffset=0mm|HoleType=Round|Shape=Rectangle|*
%AMROTATEDRECTD31*
4,1,4,0.27,-0.27,-0.34,-0.18,-0.27,0.27,0.34,0.18,0.27,-0.27,0.0*
%
%ADD31ROTATEDRECTD31*%

G04:AMPARAMS|DCode=32|XSize=0.46mm|YSize=0.61mm|CornerRadius=0mm|HoleSize=0mm|Usage=FLASHONLY|Rotation=40.000|XOffset=0mm|YOffset=0mm|HoleType=Round|Shape=Rectangle|*
%AMROTATEDRECTD32*
4,1,4,0.02,-0.38,-0.37,0.09,-0.02,0.38,0.37,-0.09,0.02,-0.38,0.0*
%
%ADD32ROTATEDRECTD32*%

G04:AMPARAMS|DCode=33|XSize=0.46mm|YSize=0.61mm|CornerRadius=0mm|HoleSize=0mm|Usage=FLASHONLY|Rotation=190.000|XOffset=0mm|YOffset=0mm|HoleType=Round|Shape=Rectangle|*
%AMROTATEDRECTD33*
4,1,4,0.17,0.34,0.28,-0.26,-0.17,-0.34,-0.28,0.26,0.17,0.34,0.0*
%
%ADD33ROTATEDRECTD33*%

G04:AMPARAMS|DCode=34|XSize=0.46mm|YSize=0.61mm|CornerRadius=0mm|HoleSize=0mm|Usage=FLASHONLY|Rotation=298.000|XOffset=0mm|YOffset=0mm|HoleType=Round|Shape=Rectangle|*
%AMROTATEDRECTD34*
4,1,4,-0.38,0.06,0.16,0.34,0.38,-0.06,-0.16,-0.34,-0.38,0.06,0.0*
%
%ADD34ROTATEDRECTD34*%

G04:AMPARAMS|DCode=35|XSize=0.46mm|YSize=0.61mm|CornerRadius=0mm|HoleSize=0mm|Usage=FLASHONLY|Rotation=21.000|XOffset=0mm|YOffset=0mm|HoleType=Round|Shape=Rectangle|*
%AMROTATEDRECTD35*
4,1,4,-0.10,-0.37,-0.32,0.20,0.10,0.37,0.32,-0.20,-0.10,-0.37,0.0*
%
%ADD35ROTATEDRECTD35*%

G04:AMPARAMS|DCode=36|XSize=0.46mm|YSize=0.61mm|CornerRadius=0mm|HoleSize=0mm|Usage=FLASHONLY|Rotation=350.000|XOffset=0mm|YOffset=0mm|HoleType=Round|Shape=Rectangle|*
%AMROTATEDRECTD36*
4,1,4,-0.28,-0.26,-0.17,0.34,0.28,0.26,0.17,-0.34,-0.28,-0.26,0.0*
%
%ADD36ROTATEDRECTD36*%

G04:AMPARAMS|DCode=37|XSize=0.46mm|YSize=0.61mm|CornerRadius=0mm|HoleSize=0mm|Usage=FLASHONLY|Rotation=320.000|XOffset=0mm|YOffset=0mm|HoleType=Round|Shape=Rectangle|*
%AMROTATEDRECTD37*
4,1,4,-0.37,-0.09,0.02,0.38,0.37,0.09,-0.02,-0.38,-0.37,-0.09,0.0*
%
%ADD37ROTATEDRECTD37*%

G04:AMPARAMS|DCode=38|XSize=0.46mm|YSize=0.51mm|CornerRadius=0mm|HoleSize=0mm|Usage=FLASHONLY|Rotation=105.000|XOffset=0mm|YOffset=0mm|HoleType=Round|Shape=Rectangle|*
%AMROTATEDRECTD38*
4,1,4,0.30,-0.16,-0.19,-0.29,-0.30,0.16,0.19,0.29,0.30,-0.16,0.0*
%
%ADD38ROTATEDRECTD38*%

G04:AMPARAMS|DCode=39|XSize=0.46mm|YSize=0.51mm|CornerRadius=0mm|HoleSize=0mm|Usage=FLASHONLY|Rotation=65.000|XOffset=0mm|YOffset=0mm|HoleType=Round|Shape=Rectangle|*
%AMROTATEDRECTD39*
4,1,4,0.13,-0.31,-0.33,-0.10,-0.13,0.31,0.33,0.10,0.13,-0.31,0.0*
%
%ADD39ROTATEDRECTD39*%

G04:AMPARAMS|DCode=40|XSize=0.46mm|YSize=0.51mm|CornerRadius=0mm|HoleSize=0mm|Usage=FLASHONLY|Rotation=30.000|XOffset=0mm|YOffset=0mm|HoleType=Round|Shape=Rectangle|*
%AMROTATEDRECTD40*
4,1,4,-0.07,-0.33,-0.32,0.11,0.07,0.33,0.32,-0.11,-0.07,-0.33,0.0*
%
%ADD40ROTATEDRECTD40*%

G04:AMPARAMS|DCode=41|XSize=0.46mm|YSize=0.51mm|CornerRadius=0mm|HoleSize=0mm|Usage=FLASHONLY|Rotation=330.000|XOffset=0mm|YOffset=0mm|HoleType=Round|Shape=Rectangle|*
%AMROTATEDRECTD41*
4,1,4,-0.32,-0.11,-0.07,0.33,0.32,0.11,0.07,-0.33,-0.32,-0.11,0.0*
%
%ADD41ROTATEDRECTD41*%

G04:AMPARAMS|DCode=42|XSize=0.46mm|YSize=0.51mm|CornerRadius=0mm|HoleSize=0mm|Usage=FLASHONLY|Rotation=300.000|XOffset=0mm|YOffset=0mm|HoleType=Round|Shape=Rectangle|*
%AMROTATEDRECTD42*
4,1,4,-0.33,0.07,0.11,0.32,0.33,-0.07,-0.11,-0.32,-0.33,0.07,0.0*
%
%ADD42ROTATEDRECTD42*%

G04:AMPARAMS|DCode=43|XSize=0.46mm|YSize=0.51mm|CornerRadius=0mm|HoleSize=0mm|Usage=FLASHONLY|Rotation=240.000|XOffset=0mm|YOffset=0mm|HoleType=Round|Shape=Rectangle|*
%AMROTATEDRECTD43*
4,1,4,-0.11,0.32,0.33,0.07,0.11,-0.32,-0.33,-0.07,-0.11,0.32,0.0*
%
%ADD43ROTATEDRECTD43*%

G04:AMPARAMS|DCode=44|XSize=1mm|YSize=1.5mm|CornerRadius=0mm|HoleSize=0mm|Usage=FLASHONLY|Rotation=266.000|XOffset=0mm|YOffset=0mm|HoleType=Round|Shape=Rectangle|*
%AMROTATEDRECTD44*
4,1,4,-0.71,0.55,0.78,0.45,0.71,-0.55,-0.78,-0.45,-0.71,0.55,0.0*
%
%ADD44ROTATEDRECTD44*%

G04:AMPARAMS|DCode=45|XSize=1mm|YSize=1.5mm|CornerRadius=0mm|HoleSize=0mm|Usage=FLASHONLY|Rotation=236.500|XOffset=0mm|YOffset=0mm|HoleType=Round|Shape=Rectangle|*
%AMROTATEDRECTD45*
4,1,4,-0.35,0.83,0.90,0.00,0.35,-0.83,-0.90,-0.00,-0.35,0.83,0.0*
%
%ADD45ROTATEDRECTD45*%

G04:AMPARAMS|DCode=46|XSize=1mm|YSize=1.5mm|CornerRadius=0mm|HoleSize=0mm|Usage=FLASHONLY|Rotation=207.000|XOffset=0mm|YOffset=0mm|HoleType=Round|Shape=Rectangle|*
%AMROTATEDRECTD46*
4,1,4,0.11,0.90,0.79,-0.44,-0.11,-0.90,-0.79,0.44,0.11,0.90,0.0*
%
%ADD46ROTATEDRECTD46*%

G04:AMPARAMS|DCode=47|XSize=1mm|YSize=1.5mm|CornerRadius=0mm|HoleSize=0mm|Usage=FLASHONLY|Rotation=176.400|XOffset=0mm|YOffset=0mm|HoleType=Round|Shape=Rectangle|*
%AMROTATEDRECTD47*
4,1,4,0.55,0.72,0.45,-0.78,-0.55,-0.72,-0.45,0.78,0.55,0.72,0.0*
%
%ADD47ROTATEDRECTD47*%

G04:AMPARAMS|DCode=48|XSize=1mm|YSize=1.5mm|CornerRadius=0mm|HoleSize=0mm|Usage=FLASHONLY|Rotation=146.000|XOffset=0mm|YOffset=0mm|HoleType=Round|Shape=Rectangle|*
%AMROTATEDRECTD48*
4,1,4,0.83,0.34,-0.00,-0.90,-0.83,-0.34,0.00,0.90,0.83,0.34,0.0*
%
%ADD48ROTATEDRECTD48*%

G04:AMPARAMS|DCode=49|XSize=1mm|YSize=1.5mm|CornerRadius=0mm|HoleSize=0mm|Usage=FLASHONLY|Rotation=26.400|XOffset=0mm|YOffset=0mm|HoleType=Round|Shape=Rectangle|*
%AMROTATEDRECTD49*
4,1,4,-0.11,-0.89,-0.78,0.45,0.11,0.89,0.78,-0.45,-0.11,-0.89,0.0*
%
%ADD49ROTATEDRECTD49*%

%ADD51C,1.20*%
D15*
X02034Y016515D02*
D03*
X020405Y016515D02*
D03*
X02047D02*
D03*
X02047Y016705D02*
D03*
X020405D02*
D03*
X02034Y016705D02*
D03*
D16*
X020525Y016133D02*
D03*
Y016037D02*
D03*
X020568Y016336D02*
D03*
X020568Y016432D02*
D03*
X019995Y020989D02*
D03*
Y021086D02*
D03*
D17*
X021777Y018613D02*
D03*
Y018563D02*
D03*
Y018513D02*
D03*
Y018463D02*
D03*
Y018413D02*
D03*
D18*
X020926Y016173D02*
D03*
X020959Y016082D02*
D03*
X019585Y020909D02*
D03*
X019552Y020999D02*
D03*
D19*
X021443Y016663D02*
D03*
X021586Y016376D02*
D03*
X021514Y016519D02*
D03*
X021075Y016301D02*
D03*
X021147Y016158D02*
D03*
X021004Y016445D02*
D03*
X019047Y020413D02*
D03*
X018905Y020699D02*
D03*
X018976Y020556D02*
D03*
X019415Y020775D02*
D03*
X019343Y020918D02*
D03*
X019486Y020631D02*
D03*
D20*
X020224Y016718D02*
D03*
X020127D02*
D03*
X01794Y01824D02*
D03*
X017843Y01824D02*
D03*
D21*
X020033Y016674D02*
D03*
X019936D02*
D03*
X020034Y016503D02*
D03*
X019937D02*
D03*
X020383Y016824D02*
D03*
X020287D02*
D03*
X020133Y016505D02*
D03*
X020229D02*
D03*
X020035Y01684D02*
D03*
X019938D02*
D03*
X017791Y018298D02*
D03*
X017694D02*
D03*
X022617Y018795D02*
D03*
X022713D02*
D03*
D22*
X019563Y016361D02*
D03*
X019588Y016454D02*
D03*
D23*
X019435Y016313D02*
D03*
X0194Y016222D02*
D03*
D24*
X019654Y016148D02*
D03*
X019637Y016053D02*
D03*
D25*
X018539Y016769D02*
D03*
X018476Y016696D02*
D03*
D26*
X017878Y017869D02*
D03*
X017787Y017836D02*
D03*
D27*
X017858Y019116D02*
D03*
X017762Y019124D02*
D03*
D28*
X018797Y020413D02*
D03*
X018735Y020487D02*
D03*
D29*
X021069Y020761D02*
D03*
X021102Y020852D02*
D03*
D30*
X018462Y020232D02*
D03*
X018383Y020288D02*
D03*
D31*
X020859Y020921D02*
D03*
X020874Y021016D02*
D03*
D32*
X021995Y020257D02*
D03*
X022069Y020319D02*
D03*
D33*
X022525Y018946D02*
D03*
X02243Y018929D02*
D03*
D34*
X021601Y016731D02*
D03*
X021647Y016646D02*
D03*
D35*
X022601Y019222D02*
D03*
X022691Y019257D02*
D03*
D36*
X022632Y017936D02*
D03*
X022728Y017919D02*
D03*
D37*
X022041Y016864D02*
D03*
X022114Y016801D02*
D03*
D38*
X020702Y016305D02*
D03*
X020727Y016212D02*
D03*
D39*
X01925Y016286D02*
D03*
X01921Y016199D02*
D03*
D40*
X018259Y017099D02*
D03*
X018176Y017051D02*
D03*
X022243Y019978D02*
D03*
X022327Y020027D02*
D03*
D41*
X017997Y019521D02*
D03*
X017913Y019569D02*
D03*
X022491Y017527D02*
D03*
X022574Y017478D02*
D03*
D42*
X018804Y020536D02*
D03*
X018756Y020619D02*
D03*
X021693Y016549D02*
D03*
X021742Y016466D02*
D03*
D43*
X021256Y020786D02*
D03*
X021304Y020869D02*
D03*
D44*
X020347Y016313D02*
D03*
X020325Y015994D02*
D03*
X020336Y016153D02*
D03*
X019847Y016187D02*
D03*
X019836Y016028D02*
D03*
X019858Y016347D02*
D03*
X020145Y02076D02*
D03*
X020164Y02108D02*
D03*
X020155Y02092D02*
D03*
X020644Y02089D02*
D03*
X020654Y02105D02*
D03*
X020634Y020731D02*
D03*
D45*
X019221Y016561D02*
D03*
X019044Y016294D02*
D03*
X019132Y016428D02*
D03*
X018724Y016698D02*
D03*
X018635Y016565D02*
D03*
X018812Y016832D02*
D03*
X02127Y020513D02*
D03*
X021447Y02078D02*
D03*
X021358Y020647D02*
D03*
X021766Y020375D02*
D03*
X021855Y020509D02*
D03*
X021678Y020242D02*
D03*
D46*
X018368Y017343D02*
D03*
X018083Y017198D02*
D03*
X018225Y01727D02*
D03*
X018003Y017707D02*
D03*
X01786Y017634D02*
D03*
X018146Y01778D02*
D03*
D47*
X01802Y018437D02*
D03*
X0177Y018458D02*
D03*
X01786Y018448D02*
D03*
X017891Y018937D02*
D03*
X017731Y018947D02*
D03*
X01805Y018927D02*
D03*
X022468Y018638D02*
D03*
X022787Y018618D02*
D03*
X022628Y018628D02*
D03*
X022597Y018139D02*
D03*
X022757Y018129D02*
D03*
X022437Y018149D02*
D03*
D48*
X018268Y019562D02*
D03*
X018003Y019741D02*
D03*
X018135Y019652D02*
D03*
X01841Y020058D02*
D03*
X018277Y020148D02*
D03*
X018542Y019969D02*
D03*
X022218Y017513D02*
D03*
X022485Y017336D02*
D03*
X022352Y017424D02*
D03*
X02208Y017016D02*
D03*
X022214Y016928D02*
D03*
X021947Y017105D02*
D03*
D49*
X02212Y019736D02*
D03*
X022407Y019878D02*
D03*
X022263Y019807D02*
D03*
X022481Y019368D02*
D03*
X022624Y019439D02*
D03*
X022338Y019297D02*
D03*
D51*
X018427Y017011D02*
D03*
X022058Y020065D02*
D03*
X01864Y020285D02*
D03*
X021847Y016787D02*
D03*
M02*
